Coordinates
version=1
nRows=17
nColumns=38
inDegrees=no

Units are S.I. units (second, meters, Newtons, ...)
If the header above contains a line with 'inDegrees', this indicates whether rotational values are in degrees (yes) or radians (no).

endheader
time	pelvis_tilt	pelvis_list	pelvis_rotation	pelvis_tx	pelvis_ty	pelvis_tz	hip_flexion_r	hip_adduction_r	hip_rotation_r	knee_angle_r	ankle_angle_r	subtalar_angle_r	mtp_angle_r	hip_flexion_l	hip_adduction_l	hip_rotation_l	knee_angle_l	ankle_angle_l	subtalar_angle_l	mtp_angle_l	lumbar_extension	lumbar_bending	lumbar_rotation	arm_flex_r	arm_add_r	arm_rot_r	elbow_flex_r	pro_sup_r	wrist_flex_r	wrist_dev_r	arm_flex_l	arm_add_l	arm_rot_l	elbow_flex_l	pro_sup_l	wrist_flex_l	wrist_dev_l
10	-2.37219	1.49955	1.43563	0.835936	0.579038	1.06188	0.118885	-0.159354	-0.225598	0.0520932	-0.53969	0	0	0.108888	-0.153217	-0.172919	0.391727	-0.231527	0	0	-0.643253	-0.0666207	0.0376897	0.180042	-0.798811	-0.352753	0.746027	0.6394	0	0	0.572793	-0.533617	0.80705	0.252139	1.5708	0	0
10.01	-2.32395	1.50246	1.39076	0.837859	0.58151	1.06226	0.116091	-0.160399	-0.226258	0.0532172	-0.545297	0	0	0.108727	-0.153626	-0.171428	0.39539	-0.229975	0	0	-0.64819	-0.0655607	0.0389512	0.159937	-0.790919	-0.368096	0.739442	0.630099	0	0	0.572564	-0.53571	0.803592	0.251693	1.5708	0	0
10.02	-2.26999	1.5051	1.34092	0.839859	0.583993	1.06265	0.113096	-0.16156	-0.22859	0.0545042	-0.551545	0	0	0.108788	-0.154029	-0.168942	0.398997	-0.228376	0	0	-0.652868	-0.0639087	0.0395523	0.140428	-0.782875	-0.381788	0.732209	0.618664	0	0	0.571998	-0.537539	0.798867	0.250562	1.5708	0	0
10.03	-2.20774	1.5078	1.28235	0.841739	0.58645	1.06309	0.110093	-0.162416	-0.229966	0.056478	-0.556672	0	0	0.108248	-0.154639	-0.166343	0.402283	-0.226985	0	0	-0.657601	-0.0620836	0.0400723	0.122639	-0.775106	-0.392582	0.723914	0.608293	0	0	0.570873	-0.539608	0.793446	0.249173	1.5708	0	0
10.04	-2.13108	1.51087	1.20899	0.843564	0.588942	1.06361	0.106598	-0.162958	-0.230828	0.0589409	-0.563188	0	0	0.106644	-0.155557	-0.163889	0.405399	-0.224969	0	0	-0.663179	-0.0598593	0.0409958	0.105051	-0.768285	-0.401132	0.716018	0.593347	0	0	0.569561	-0.54096	0.785276	0.247413	1.5708	0	0
10.05	-2.04961	1.51354	1.13088	0.845389	0.591444	1.06414	0.103472	-0.163659	-0.231578	0.0622868	-0.567832	0	0	0.104963	-0.156312	-0.161214	0.408093	-0.223468	0	0	-0.668621	-0.0574993	0.041005	0.0890917	-0.761097	-0.408348	0.707825	0.580659	0	0	0.567749	-0.542829	0.777853	0.245556	1.5708	0	0
10.06	-1.95691	1.51618	1.04158	0.847238	0.593913	1.06472	0.0998963	-0.164567	-0.232874	0.0660873	-0.573274	0	0	0.102552	-0.157108	-0.158778	0.410439	-0.221657	0	0	-0.674263	-0.0551509	0.0412158	0.0732016	-0.754823	-0.412831	0.698928	0.563627	0	0	0.566098	-0.543756	0.768628	0.242669	1.5708	0	0
10.07	-1.85204	1.51821	0.938808	0.848917	0.59631	1.0653	0.096415	-0.164665	-0.231731	0.0690535	-0.578527	0	0	0.0997846	-0.158185	-0.157175	0.412831	-0.219746	0	0	-0.679446	-0.053436	0.0425885	0.0577932	-0.748953	-0.41579	0.689443	0.54663	0	0	0.564809	-0.544346	0.760887	0.239191	1.5708	0	0
10.08	-1.73629	1.51949	0.82402	0.850483	0.598575	1.06589	0.0933621	-0.164105	-0.229251	0.072249	-0.583639	0	0	0.0963297	-0.159709	-0.156699	0.414795	-0.217652	0	0	-0.684208	-0.0522034	0.0450032	0.0423362	-0.743337	-0.4179	0.680131	0.529124	0	0	0.563692	-0.544815	0.754879	0.235242	1.5708	0	0
10.09	-1.61489	1.52055	0.704202	0.85202	0.601002	1.06657	0.0901031	-0.164082	-0.227746	0.075811	-0.589424	0	0	0.09291	-0.160851	-0.156267	0.417014	-0.215717	0	0	-0.68944	-0.0509521	0.0472105	0.0259586	-0.738148	-0.419317	0.672063	0.507412	0	0	0.563736	-0.544878	0.749711	0.230726	1.5708	0	0
10.1	-1.53596	1.51946	0.627333	0.853711	0.603479	1.06708	0.0899061	-0.164633	-0.226679	0.080239	-0.594286	0	0	0.0927256	-0.161452	-0.155209	0.419534	-0.214465	0	0	-0.694209	-0.0484565	0.0444109	0.0157915	-0.732365	-0.418005	0.665161	0.491273	0	0	0.558917	-0.549541	0.741541	0.231344	1.5708	0	0
10.11	-1.46694	1.5179	0.559373	0.85536	0.605829	1.06751	0.0905998	-0.165262	-0.224697	0.0853974	-0.599165	0	0	0.0924772	-0.162036	-0.155618	0.422032	-0.212758	0	0	-0.698098	-0.0462643	0.0412877	0.00712694	-0.727298	-0.413917	0.657774	0.475499	0	0	0.552344	-0.554548	0.730927	0.232678	1.5708	0	0
10.12	-1.41472	1.51584	0.506491	0.856891	0.607999	1.06784	0.0927755	-0.165908	-0.220573	0.0912925	-0.603595	0	0	0.0924848	-0.162803	-0.159106	0.424888	-0.210644	0	0	-0.700855	-0.0449232	0.0388594	-0.000950549	-0.722812	-0.408541	0.650556	0.458807	0	0	0.544556	-0.559359	0.717581	0.23411	1.5708	0	0
10.13	-1.36961	1.51386	0.460735	0.858403	0.610288	1.06815	0.0947777	-0.166912	-0.217146	0.0961212	-0.608641	0	0	0.0936421	-0.162984	-0.164651	0.4305	-0.207594	0	0	-0.7035	-0.0435524	0.0363499	-0.00902382	-0.719193	-0.402342	0.644025	0.442197	0	0	0.536823	-0.563573	0.702618	0.235675	1.5708	0	0
10.14	-1.31358	1.51308	0.404156	0.860286	0.612795	1.06853	0.0956151	-0.169956	-0.216245	0.101651	-0.61528	0	0	0.106153	-0.161766	-0.208119	0.472372	-0.192969	0	0	-0.70692	-0.0419297	0.0328538	-0.0169919	-0.717919	-0.392379	0.638162	0.421757	0	0	0.527876	-0.566313	0.681882	0.2368	1.5708	0	0
10.15	-1.25539	1.51183	0.345052	0.861958	0.615147	1.06897	0.0969815	-0.172319	-0.215079	0.108504	-0.620466	0	0	0.112226	-0.162157	-0.239297	0.49065	-0.188787	0	0	-0.710272	-0.0405587	0.0302608	-0.0253474	-0.716103	-0.383862	0.63274	0.403775	0	0	0.519607	-0.568657	0.660374	0.237464	1.5708	0	0
10.16	-1.21532	1.50925	0.303893	0.86336	0.617434	1.0692	0.100168	-0.173367	-0.212549	0.11626	-0.623765	0	0	0.111221	-0.162872	-0.240784	0.49066	-0.186513	0	0	-0.712168	-0.0388625	0.0287141	-0.0341991	-0.713604	-0.378409	0.628054	0.390013	0	0	0.512396	-0.57121	0.643443	0.238117	1.5708	0	0
